<svg width="94.19" height="45.947" viewBox="0 0 94.19 45.947" xmlns="http://www.w3.org/2000/svg"><g id="svgGroup" stroke-linecap="round" fill-rule="evenodd" font-size="9pt" stroke="#000" stroke-width="0.25mm" fill="black" style="stroke:#000;stroke-width:0.25mm;fill:black"><path d="M 47.632 23.486 L 47.632 21.533 A 28.935 28.935 0 0 1 47.817 18.141 Q 48.291 14.14 49.976 11.841 A 7.491 7.491 0 0 1 55.392 8.706 A 10.193 10.193 0 0 1 56.543 8.643 A 7.231 7.231 0 0 1 59.086 9.07 Q 60.862 9.732 62.046 11.419 A 7.962 7.962 0 0 1 62.085 11.475 L 62.354 9.131 L 68.579 9.131 L 68.579 35.547 A 14.403 14.403 0 0 1 68.274 38.607 Q 67.65 41.478 65.747 43.274 A 9.161 9.161 0 0 1 62.058 45.355 Q 60.659 45.781 58.977 45.9 A 19.152 19.152 0 0 1 57.617 45.947 A 12.248 12.248 0 0 1 54.833 45.613 A 15.697 15.697 0 0 1 53.052 45.081 A 12.271 12.271 0 0 1 51.551 44.428 Q 50.256 43.752 49.487 42.871 L 51.807 38.086 A 6.557 6.557 0 0 0 53.173 39.17 A 8.687 8.687 0 0 0 54.346 39.758 A 9.125 9.125 0 0 0 55.773 40.223 A 6.752 6.752 0 0 0 57.3 40.405 A 7.625 7.625 0 0 0 58.499 40.318 Q 59.114 40.22 59.599 40.011 A 2.948 2.948 0 0 0 60.632 39.294 Q 61.607 38.226 61.667 35.904 A 11.761 11.761 0 0 0 61.67 35.718 L 61.67 33.447 A 6.765 6.765 0 0 1 59.75 35.193 Q 58.351 36.022 56.575 36.035 A 7.742 7.742 0 0 1 56.519 36.035 Q 52.295 36.035 49.988 32.751 A 11.425 11.425 0 0 1 48.448 29.518 Q 48.005 28.077 47.802 26.349 A 26.432 26.432 0 0 1 47.632 23.486 Z M 7.178 0 L 7.178 29.59 L 19.775 29.59 L 19.775 35.547 L 0 35.547 L 0 0 L 7.178 0 Z M 22.778 23.169 L 22.778 21.484 A 20.573 20.573 0 0 1 23.098 17.741 Q 23.73 14.33 25.61 12.061 A 9.254 9.254 0 0 1 31.936 8.726 A 13.284 13.284 0 0 1 33.447 8.643 A 11.978 11.978 0 0 1 36.859 9.103 A 9.013 9.013 0 0 1 41.333 12.061 A 11.474 11.474 0 0 1 43.479 16.212 Q 43.972 17.895 44.111 19.907 A 23.659 23.659 0 0 1 44.165 21.533 L 44.165 23.218 Q 44.165 27.602 42.681 30.593 A 10.573 10.573 0 0 1 41.357 32.642 A 9.162 9.162 0 0 1 35.317 35.915 A 13.34 13.34 0 0 1 33.496 36.035 A 12.145 12.145 0 0 1 30.138 35.595 A 8.977 8.977 0 0 1 25.598 32.629 A 11.398 11.398 0 0 1 23.483 28.561 Q 22.778 26.196 22.778 23.169 Z M 72.803 23.169 L 72.803 21.484 A 20.573 20.573 0 0 1 73.122 17.741 Q 73.754 14.33 75.635 12.061 A 9.254 9.254 0 0 1 81.961 8.726 A 13.284 13.284 0 0 1 83.472 8.643 A 11.978 11.978 0 0 1 86.883 9.103 A 9.013 9.013 0 0 1 91.357 12.061 A 11.474 11.474 0 0 1 93.503 16.212 Q 93.997 17.895 94.135 19.907 A 23.659 23.659 0 0 1 94.189 21.533 L 94.189 23.218 Q 94.189 27.602 92.705 30.593 A 10.573 10.573 0 0 1 91.382 32.642 A 9.162 9.162 0 0 1 85.341 35.915 A 13.34 13.34 0 0 1 83.521 36.035 A 12.145 12.145 0 0 1 80.162 35.595 A 8.977 8.977 0 0 1 75.623 32.629 A 11.398 11.398 0 0 1 73.508 28.561 Q 72.803 26.196 72.803 23.169 Z M 54.541 21.533 L 54.541 23.267 A 22.372 22.372 0 0 0 54.612 25.121 Q 54.761 26.899 55.219 28.03 A 4.784 4.784 0 0 0 55.493 28.601 Q 56.334 30.077 58.049 30.25 A 4.694 4.694 0 0 0 58.521 30.273 A 4.626 4.626 0 0 0 59.796 30.108 A 3.268 3.268 0 0 0 61.67 28.735 L 61.67 16.113 Q 60.596 14.429 58.569 14.429 A 3.916 3.916 0 0 0 57.259 14.637 Q 56.222 15.003 55.591 16.012 A 4.225 4.225 0 0 0 55.53 16.113 A 5.55 5.55 0 0 0 55.008 17.366 Q 54.645 18.609 54.564 20.438 A 24.82 24.82 0 0 0 54.541 21.533 Z M 29.712 21.484 L 29.712 23.218 A 19.809 19.809 0 0 0 29.844 25.613 Q 30.146 28.079 31.142 29.247 A 2.944 2.944 0 0 0 33.496 30.298 A 3.066 3.066 0 0 0 36.378 28.48 Q 37.061 27.166 37.226 24.902 A 18.792 18.792 0 0 0 37.256 24.39 L 37.28 21.484 A 20.836 20.836 0 0 0 37.201 19.6 Q 36.999 17.38 36.279 16.125 A 3.979 3.979 0 0 0 35.533 15.168 A 2.967 2.967 0 0 0 33.447 14.38 A 2.861 2.861 0 0 0 31.17 15.445 A 4.399 4.399 0 0 0 30.701 16.125 A 6.067 6.067 0 0 0 30.158 17.472 Q 29.775 18.834 29.721 20.818 A 24.524 24.524 0 0 0 29.712 21.484 Z M 79.736 21.484 L 79.736 23.218 A 19.809 19.809 0 0 0 79.868 25.613 Q 80.17 28.079 81.166 29.247 A 2.944 2.944 0 0 0 83.521 30.298 A 3.066 3.066 0 0 0 86.402 28.48 Q 87.085 27.166 87.25 24.902 A 18.792 18.792 0 0 0 87.28 24.39 L 87.305 21.484 A 20.836 20.836 0 0 0 87.226 19.6 Q 87.023 17.38 86.304 16.125 A 3.979 3.979 0 0 0 85.557 15.168 A 2.967 2.967 0 0 0 83.472 14.38 A 2.861 2.861 0 0 0 81.194 15.445 A 4.399 4.399 0 0 0 80.725 16.125 A 6.067 6.067 0 0 0 80.183 17.472 Q 79.799 18.834 79.745 20.818 A 24.524 24.524 0 0 0 79.736 21.484 Z" vector-effect="non-scaling-stroke"/></g></svg>