<?xml version="1.0" encoding="utf-8"?><svg xmlns="http://www.w3.org/2000/svg" xmlns:xlink="http://www.w3.org/1999/xlink"><symbol viewBox="0 0 24 24" id="arrow" xmlns="http://www.w3.org/2000/svg"><path d="M0 7.33L2.829 4.5l9.175 9.339L21.171 4.5 24 7.33 12.004 19.5z"/></symbol><symbol viewBox="0 0 24 24" id="check" xmlns="http://www.w3.org/2000/svg"><path d="M20.285 2L9 13.567 3.714 8.556 0 12.272 9 21 24 5.715z"/></symbol><symbol viewBox="0 0 48 48" id="cross" xmlns="http://www.w3.org/2000/svg"><path fill="none" d="M0 0h48v48H0z"/><path d="M45 38.329L30.449 23.963 44.799 9.47 38.329 3 23.958 17.556 9.415 3.201 3 9.617l14.562 14.42L3.201 38.585 9.617 45l14.415-14.557L38.53 44.799l6.47-6.47z"/></symbol><symbol viewBox="0 0 48 48" fill-rule="evenodd" clip-rule="evenodd" stroke-linejoin="round" stroke-miterlimit="2" id="menu" xmlns="http://www.w3.org/2000/svg"><path fill="none" d="M0 0h48v48H0z"/><path d="M45 13.5H3v-7h42v7zm0 7H3v7h42v-7zm0 14H3v7h42v-7z" fill-rule="nonzero"/></symbol></svg>