<?xml version="1.0" encoding="utf-8"?><svg xmlns="http://www.w3.org/2000/svg" xmlns:xlink="http://www.w3.org/1999/xlink"><symbol viewBox="0 0 24 24" id="chevron-bas" xmlns="http://www.w3.org/2000/svg"><path fill-rule="evenodd" clip-rule="evenodd" d="M6.576 9.576a.6.6 0 01.849 0L12 14.15l4.576-4.575a.6.6 0 01.849.848l-5 5a.6.6 0 01-.849 0l-5-5a.6.6 0 010-.848z"/></symbol><symbol viewBox="0 0 24 24" id="chevron-droite" xmlns="http://www.w3.org/2000/svg"><path fill-rule="evenodd" clip-rule="evenodd" d="M8.576 17.424a.6.6 0 010-.848L13.152 12 8.576 7.424a.6.6 0 11.849-.848l5 5a.6.6 0 010 .848l-5 5a.6.6 0 01-.849 0z"/></symbol><symbol viewBox="0 0 24 24" id="chevron-gauche" xmlns="http://www.w3.org/2000/svg"><path fill-rule="evenodd" clip-rule="evenodd" d="M14.424 6.576a.6.6 0 010 .848L9.848 12l4.576 4.576a.6.6 0 01-.849.848l-5-5a.6.6 0 010-.848l5-5a.6.6 0 01.849 0z"/></symbol><symbol viewBox="0 0 24 24" id="chevron-haut" xmlns="http://www.w3.org/2000/svg"><path fill-rule="evenodd" clip-rule="evenodd" d="M17.424 15.424a.6.6 0 01-.849 0L12 10.85l-4.576 4.575a.6.6 0 11-.849-.848l5-5a.6.6 0 01.849 0l5 5a.6.6 0 010 .848z"/></symbol></svg>